# xmcd
#
# Track frame offsets:
#	150
#	13835
#	37009
#	50030
#	68359
#	83982
#	102938
#	120522
#	142871
#	163419
#	181015
#	194352
#	216143
#	235018
#	245735
#
# Disc length: 3490 seconds
#
# Revision: 0
# Processed by: cddbd v1.5.2PL0 Copyright (c) Steve Scherf et al.
# Submitted via: audiograbber 1.83.01
#
DISCID=cd0da00f
DTITLE=Sound Choice - Country Hits - Vol. 169 SC8867
DYEAR=1900
DGENRE=Karaoke
TTITLE0=Brooks and Dunn - That's What She Gets For Loving Me
TTITLE1=Kenny Chesney and Uncle Kracker - When The Sun Goes Down
TTITLE2=Johnny Cash and Fiona Apple - Father and Son
TTITLE3=Toby Keith - The Critic
TTITLE4=Billy Currington - I Got A Feelin'
TTITLE5=Sherrie Austin - Driving Into The Sun
TTITLE6=Tracy Lawrence - Paint Me A Birmingham
TTITLE7=Shania Twain - Forever and For Always
TTITLE8=John Michael Montgomery - Letters From Home
TTITLE9=Diamond Rio - We All Fall Down
TTITLE10=Martina McBride - Wearing White
TTITLE11=Rascal Flatts - Mayberry
TTITLE12=George Strait - Desperately
TTITLE13=George Strait - Honk If You Honky Tonk
TTITLE14=Shania Twain - It Only Hurts When I'm Breathing
EXTD=
EXTT0=
EXTT1=
EXTT2=
EXTT3=
EXTT4=
EXTT5=
EXTT6=
EXTT7=
EXTT8=
EXTT9=
EXTT10=
EXTT11=
EXTT12=
EXTT13=
EXTT14=
PLAYORDER=
